<svg width="32" height="32" viewBox="0 0 32 32" fill="none" xmlns="http://www.w3.org/2000/svg">
<g id="Bold / Essentional, UI / Close Circle">
<path id="Vector" fill-rule="evenodd" clip-rule="evenodd" d="M29.3334 16C29.3334 23.3638 23.3639 29.3334 16.0001 29.3334C8.63628 29.3334 2.66675 23.3638 2.66675 16C2.66675 8.63622 8.63628 2.66669 16.0001 2.66669C23.3639 2.66669 29.3334 8.63622 29.3334 16ZM11.9596 11.9596C12.3501 11.569 12.9833 11.569 13.3738 11.9596L16 14.5858L18.6263 11.9596C19.0168 11.5691 19.6499 11.5691 20.0405 11.9596C20.431 12.3501 20.431 12.9833 20.0405 13.3738L17.4143 16L20.0404 18.6262C20.431 19.0167 20.431 19.6499 20.0404 20.0404C19.6499 20.4309 19.0167 20.4309 18.6262 20.0404L16 17.4142L13.3738 20.0404C12.9833 20.431 12.3501 20.431 11.9596 20.0404C11.5691 19.6499 11.5691 19.0167 11.9596 18.6262L14.5858 16L11.9596 13.3738C11.5691 12.9832 11.5691 12.3501 11.9596 11.9596Z" fill="#251605"/>
</g>
</svg>
