<svg width="24" height="25" viewBox="0 0 24 25" fill="none" xmlns="http://www.w3.org/2000/svg">
<g id="Bold / Messages, Conversation / Pen">
<g id="Vector">
<path d="M11.4001 18.3706L11.4001 18.3706L18.796 10.9747C17.7894 10.5558 16.5972 9.86762 15.4697 8.74009C14.342 7.61239 13.6537 6.41999 13.2348 5.41331L5.83882 12.8093L5.83879 12.8093C5.26166 13.3865 4.97307 13.6751 4.7249 13.9932C4.43213 14.3686 4.18114 14.7747 3.97634 15.2044C3.80273 15.5687 3.67368 15.9559 3.41556 16.7302L2.05445 20.8136C1.92743 21.1946 2.0266 21.6148 2.31063 21.8988C2.59466 22.1828 3.01478 22.282 3.39584 22.155L7.47918 20.7938C8.25351 20.5357 8.6407 20.4067 9.00498 20.2331C9.43469 20.0283 9.84082 19.7773 10.2162 19.4845C10.5343 19.2363 10.823 18.9477 11.4001 18.3706Z" fill="#0075FF"/>
<path d="M20.8482 8.92247C22.3839 7.38676 22.3839 4.89689 20.8482 3.36119C19.3125 1.82549 16.8226 1.82549 15.2869 3.36119L14.3999 4.24823C14.4121 4.28491 14.4246 4.3221 14.4377 4.35977C14.7628 5.29691 15.3763 6.52542 16.5303 7.67943C17.6843 8.83345 18.9128 9.4469 19.85 9.77203C19.8875 9.78504 19.9245 9.79758 19.961 9.80967L20.8482 8.92247Z" fill="#0075FF"/>
</g>
</g>
</svg>
