<svg width="20" height="21" viewBox="0 0 20 21" fill="none" xmlns="http://www.w3.org/2000/svg">
<g id="Bold / Video, Audio, Sound / Rewind 15 Seconds Back">
<path id="Vector" fill-rule="evenodd" clip-rule="evenodd" d="M8.6041 7.4153C8.82064 7.51937 8.95836 7.73836 8.95836 7.97861V13.8119C8.95836 14.1571 8.67853 14.4369 8.33336 14.4369C7.98818 14.4369 7.70836 14.1571 7.70836 13.8119V9.279L6.64046 10.1333C6.37092 10.349 5.97761 10.3053 5.76198 10.0357C5.54635 9.76618 5.59005 9.37287 5.85959 9.15724L7.94292 7.49057C8.13053 7.34048 8.38756 7.31122 8.6041 7.4153ZM10.5621 8.06588C10.7039 7.64052 11.102 7.35361 11.5503 7.35361H13.75C14.0952 7.35361 14.375 7.63344 14.375 7.97861C14.375 8.32379 14.0952 8.60361 13.75 8.60361H11.7005L11.2838 9.85361H12.0834C13.349 9.85361 14.375 10.8796 14.375 12.1453C14.375 13.4109 13.349 14.4369 12.0834 14.4369H10.4167C10.0715 14.4369 9.79169 14.1571 9.79169 13.8119C9.79169 13.4668 10.0715 13.1869 10.4167 13.1869H12.0834C12.6587 13.1869 13.125 12.7206 13.125 12.1453C13.125 11.57 12.6587 11.1036 12.0834 11.1036H10.9948C10.2838 11.1036 9.78173 10.4071 10.0066 9.73254L10.5621 8.06588Z" fill="#463730"/>
<path id="Vector_2" fill-rule="evenodd" clip-rule="evenodd" d="M9.43664 2.29121C9.54072 2.07467 9.75971 1.93695 9.99996 1.93695C10.6127 1.93695 11.2118 1.99857 11.791 2.11614C15.8802 2.94622 18.9583 6.56059 18.9583 10.8953C18.9583 15.8428 14.9475 19.8536 9.99996 19.8536C5.05241 19.8536 1.04163 15.8428 1.04163 10.8953C1.04163 7.22082 3.25379 4.06444 6.41639 2.68264C6.7327 2.54444 7.10115 2.68882 7.23935 3.00512C7.37755 3.32143 7.23316 3.68988 6.91686 3.82808C4.19311 5.01813 2.29163 7.73535 2.29163 10.8953C2.29163 15.1525 5.74276 18.6036 9.99996 18.6036C14.2572 18.6036 17.7083 15.1525 17.7083 10.8953C17.7083 7.43656 15.4298 4.5088 12.2916 3.53315V4.64528C12.2916 4.91071 12.124 5.14719 11.8735 5.23505C11.623 5.32291 11.3444 5.24298 11.1786 5.03572L9.51192 2.95239C9.36183 2.76478 9.33257 2.50775 9.43664 2.29121Z" fill="#463730"/>
</g>
</svg>
